PathFileType	3	(X/Y/Z)	D:\minhoCalibration\240510\subject1_KPNP\preferred\preferred16.trc
DataRate	CameraRate	NumFrames	NumMarkers	Units	OrigDataRate	OrigDataStartFrame	OrigNumFrames
200.0	200.0	24	10	mm	200.0	297	185	
Frame#	Time	Left_Ankle_Outer1			Left_Ankle_Inner1			Left_Knee_Outer1			Left_Knee_Inner1			Left_Wrist1			Right_Wrist1			Right_Knee_Inner1			Right_Knee_Outer1			Right_Ankle_Inner1			Right_Ankle_Outer1			
		X1	Y1	Z1	X2	Y2	Z2	X3	Y3	Z3	X4	Y4	Z4	X5	Y5	Z5	X6	Y6	Z6	X7	Y7	Z7	X8	Y8	Z8	X9	Y9	Z9	X10	Y10	Z10	
297	1.475	-481.75128	138.05702	-572.83777	-538.31293	133.97031	-559.11304	-551.13647	583.13031	-491.84442	-641.59613	525.24121	-532.66437	-574.97815	987.87604	-677.25458	-782.80164	987.53082	-966.03815	-771.17468	513.62256	-931.76324	-799.06372	549.93652	-1031.3025	-676.20605	112.49919	-1094.3115	-755.95801	107.49455	-1175.6686
298	1.48	-481.88382	138.49216	-572.62994	-538.13074	134.52209	-558.23615	-549.18036	583.56671	-489.20905	-640.37354	525.97101	-528.97461	-573.90295	987.37195	-676.03827	-782.02496	987.07849	-964.2851	-769.71283	513.18219	-932.15778	-797.59412	549.75183	-1030.9552	-675.97418	112.06028	-1094.2278	-755.64734	107.87373	-1175.7875
299	1.485	-482.06799	138.87469	-572.36432	-538.20612	135.08932	-557.56207	-547.17657	583.99139	-486.57913	-639.13104	526.67236	-525.53357	-572.76007	986.5506	-674.98041	-780.80145	987.07489	-963.78015	-768.26636	512.79456	-931.09558	-796.29077	549.79565	-1030.9269	-675.64404	111.50062	-1094.183	-755.37024	106.87236	-1175.5785
300	1.49	-482.25772	139.28264	-572.12958	-538.34705	135.62706	-556.96118	-545.17444	584.39673	-483.86993	-637.82782	527.41473	-521.93927	-571.59491	986.11182	-673.49109	-780.28809	986.39014	-961.39185	-766.38531	512.19763	-931.0567	-794.79584	549.46912	-1030.2267	-675.50647	111.46886	-1094.0111	-754.66473	108.0445	-1175.3263
301	1.495	-482.46771	139.72928	-571.8656	-538.55859	136.24319	-556.26941	-543.10046	584.76007	-481.15054	-636.46454	528.16278	-518.25616	-570.33313	985.4754	-672.08105	-779.39062	985.86749	-959.73895	-765.57288	511.99353	-930.11365	-793.65106	549.56549	-1029.9915	-675.29858	111.21687	-1093.9266	-754.461	107.93678	-1175.3295
302	1.5	-482.85776	140.15166	-571.60919	-538.81732	136.72815	-555.63226	-541.00958	585.10852	-478.35788	-635.06976	528.81799	-514.64575	-569.03027	984.66016	-670.7962	-778.13312	985.84857	-958.34149	-764.3501	511.604	-929.52783	-792.36523	549.21173	-1029.115	-674.95325	110.65774	-1093.9479	-754.53918	107.43519	-1175.442
303	1.505	-483.3522	140.50301	-571.30939	-539.03992	137.30891	-554.77655	-538.96246	585.46466	-475.55142	-633.70544	529.50397	-510.99384	-567.64923	984.17426	-669.27374	-777.39465	985.29596	-956.01019	-763.06458	511.19913	-929.02155	-791.42792	549.33984	-1028.7233	-674.78235	110.57185	-1093.8136	-754.37689	107.51226	-1175.34
304	1.51	-483.75409	140.92705	-570.95001	-539.39105	137.82196	-554.09387	-536.8125	585.76154	-472.69785	-632.33582	530.22467	-507.24136	-566.24548	983.50397	-667.77588	-776.56354	984.70972	-953.57495	-762.37927	510.89328	-928.02191	-790.43976	549.04163	-1027.6375	-674.64752	110.39256	-1093.6765	-754.20905	107.63233	-1175.2
305	1.515	-484.27274	141.31523	-570.62299	-539.85034	138.42276	-553.27917	-534.71368	586.01605	-469.80377	-630.89746	530.8905	-503.55124	-564.79358	982.86658	-666.12201	-775.37585	984.57629	-952.1012	-761.35706	510.55371	-927.31738	-789.70984	548.96375	-1026.7622	-674.62866	110.57467	-1093.5128	-754.08923	107.68076	-1175.1244
306	1.52	-484.85492	141.6138	-570.27533	-540.25171	139.01122	-552.53381	-532.53223	586.30835	-466.88385	-629.40808	531.55652	-499.86221	-563.29132	982.20197	-664.46179	-774.39203	984.03973	-949.93848	-760.83148	510.26035	-926.15002	-789.14148	548.83624	-1025.693	-674.56262	110.51459	-1093.4487	-754.01086	107.21731	-1174.7786
307	1.525	-485.43588	142.11031	-569.90021	-540.92456	139.55888	-551.88519	-530.34845	586.54926	-463.93826	-627.90845	532.18146	-496.14612	-561.78058	981.54016	-662.73999	-773.14783	983.90674	-948.50189	-760.24945	509.90231	-925.17743	-788.62347	548.74615	-1024.543	-674.51294	110.48809	-1093.2944	-753.96851	107.97188	-1174.8236
308	1.53	-486.02106	142.61198	-569.58728	-541.41235	140.10002	-551.13715	-528.19702	586.7478	-460.9874	-626.37616	532.82739	-492.42365	-560.26569	980.78082	-660.9939	-772.01117	983.73163	-945.97046	-759.48987	509.63773	-924.1026	-788.43365	548.8833	-1023.5723	-674.4375	110.49494	-1093.1597	-753.9447	107.58548	-1174.4495
309	1.535	-486.67612	142.94531	-569.15253	-541.98358	140.72678	-550.36694	-525.97845	586.92657	-457.98453	-624.81464	533.42688	-488.61365	-558.67664	979.96698	-659.22803	-770.80096	983.23486	-944.99933	-759.21222	509.26917	-922.71527	-787.98328	548.46771	-1021.8084	-674.44513	110.54342	-1092.9843	-753.9751	107.69588	-1174.2805
310	1.54	-487.36804	143.3624	-568.75061	-542.33618	141.17058	-549.33423	-523.72717	587.10162	-454.95499	-623.24585	534.05945	-484.70477	-557.02533	979.18835	-657.47052	-769.51758	983.16833	-942.57458	-758.72784	508.86856	-921.36804	-787.73029	548.315	-1020.2654	-674.34583	110.51482	-1092.828	-754.03894	108.12362	-1174.0426
311	1.545	-488.15195	143.75342	-568.40613	-542.97278	141.69148	-548.54236	-521.48297	587.24554	-451.87259	-621.63257	534.57678	-480.88779	-555.35364	978.35931	-655.61963	-768.50922	982.34351	-939.63782	-758.32751	508.49258	-919.82501	-787.76459	548.39069	-1018.911	-674.27399	110.47681	-1092.6775	-754.09314	108.8251	-1173.9916
312	1.55	-488.9277	144.1657	-568.07812	-543.61902	142.27173	-547.79688	-519.23102	587.37109	-448.83334	-620.02814	535.13739	-477.0127	-553.68542	977.4892	-653.86407	-767.39496	981.95361	-937.2464	-757.84973	508.02225	-918.42731	-787.50098	547.85071	-1016.7958	-674.16998	110.41119	-1092.4709	-754.08728	108.90284	-1173.7699
313	1.555	-489.74094	144.60587	-567.75757	-544.36145	142.86388	-547.06116	-517.00909	587.43652	-445.76862	-618.31372	535.66125	-473.15656	-551.95746	976.56451	-652.01434	-765.96997	981.64752	-935.22412	-757.23676	507.56073	-916.79474	-787.5769	547.82013	-1015.2942	-673.99091	110.36784	-1092.1671	-753.9361	109.70438	-1173.3722
314	1.56	-490.6337	144.9781	-567.3725	-545.15112	143.38622	-546.33655	-514.79608	587.45355	-442.70676	-616.67023	536.15674	-469.20856	-550.16339	975.59479	-650.17761	-764.87848	980.6698	-933.22485	-757.09155	506.99533	-914.91943	-787.34521	547.16772	-1013.0543	-673.77954	110.2636	-1091.8986	-753.8429	109.96184	-1173.0022
315	1.565	-491.6351	145.30902	-567.01526	-545.9035	143.91121	-545.44794	-512.54016	587.40039	-439.58875	-615.01483	536.50464	-465.27457	-548.32898	974.52924	-648.31207	-763.8764	979.88391	-930.19281	-756.677	506.40744	-912.96533	-787.42096	546.88629	-1011.297	-673.56689	110.09386	-1091.5902	-753.55511	110.27773	-1172.2572
316	1.57	-492.71448	145.71841	-566.67181	-546.86035	144.45705	-544.74512	-510.33282	587.30121	-436.53537	-613.32861	536.84601	-461.40683	-546.48615	973.39264	-646.40881	-762.4585	979.4715	-928.54639	-756.20471	505.63913	-911.14825	-787.18176	546.19946	-1008.8864	-673.30548	110.00441	-1091.1697	-753.5697	110.30027	-1171.816
317	1.575	-493.92725	145.92224	-566.25665	-547.90277	144.93156	-543.83722	-508.08817	587.15674	-433.45309	-611.65686	537.09009	-457.57852	-544.56024	972.20728	-644.50079	-761.23718	979.22809	-925.60321	-755.81421	504.88107	-909.0202	-787.23425	545.79266	-1006.9443	-673.04712	109.78242	-1090.7465	-753.27216	110.63709	-1171.2338
318	1.58	-495.21902	146.25206	-565.89886	-549.0083	145.3878	-542.97345	-505.87552	586.89978	-430.33627	-609.97028	537.36938	-453.65298	-542.60284	970.99774	-642.58795	-760.15179	978.02502	-923.42377	-755.34271	504.04001	-906.94995	-787.09985	544.93658	-1004.3492	-672.62384	109.49052	-1090.2649	-753.2702	110.87386	-1170.8857
319	1.585	-496.58243	146.59116	-565.5871	-550.17719	145.786	-542.1676	-503.66998	586.58008	-427.24771	-608.34973	537.53973	-449.77286	-540.60187	969.73065	-640.70569	-759.02124	977.04358	-920.46436	-754.96558	503.08328	-904.70386	-787.15387	544.2381	-1002.0074	-672.23901	109.15601	-1089.828	-752.61237	111.46761	-1169.8215
320	1.59	-498.19849	146.68988	-565.15216	-551.4024	146.13559	-541.34479	-501.4519	586.17285	-424.21622	-606.61902	537.65729	-445.90848	-538.58142	968.38324	-638.81146	-758.02856	976.2467	-917.50427	-754.63641	502.11017	-902.31415	-787.27228	543.59509	-999.73535	-671.8576	108.88011	-1089.2712	-753.12933	109.8485	-1169.6888
